<mxfile host="app.diagrams.net" modified="2023-11-08T00:53:46.215Z" agent="Mozilla/5.0 (Windows NT 10.0; Win64; x64) AppleWebKit/537.36 (KHTML, like Gecko) Chrome/119.0.0.0 Safari/537.36" etag="pthtPMmVEK4kMlU-4UvN" version="22.0.8" type="device">
  <diagram name="Page-1" id="dfu1knrobgezSBWT23Ug">
    <mxGraphModel dx="1050" dy="566" grid="1" gridSize="10" guides="1" tooltips="1" connect="1" arrows="1" fold="1" page="1" pageScale="1" pageWidth="850" pageHeight="1100" math="0" shadow="0">
      <root>
        <mxCell id="0" />
        <mxCell id="1" parent="0" />
        <mxCell id="bf58LCEmuOQnqqLItDYv-7" value="" style="edgeStyle=orthogonalEdgeStyle;rounded=0;orthogonalLoop=1;jettySize=auto;html=1;" edge="1" parent="1" source="bf58LCEmuOQnqqLItDYv-1" target="bf58LCEmuOQnqqLItDYv-2">
          <mxGeometry relative="1" as="geometry" />
        </mxCell>
        <mxCell id="bf58LCEmuOQnqqLItDYv-1" value="Mulai" style="rounded=1;whiteSpace=wrap;html=1;" vertex="1" parent="1">
          <mxGeometry x="345" y="60" width="100" height="50" as="geometry" />
        </mxCell>
        <mxCell id="bf58LCEmuOQnqqLItDYv-9" value="" style="edgeStyle=orthogonalEdgeStyle;rounded=0;orthogonalLoop=1;jettySize=auto;html=1;" edge="1" parent="1" source="bf58LCEmuOQnqqLItDYv-2" target="bf58LCEmuOQnqqLItDYv-8">
          <mxGeometry relative="1" as="geometry" />
        </mxCell>
        <mxCell id="bf58LCEmuOQnqqLItDYv-11" value="" style="edgeStyle=orthogonalEdgeStyle;rounded=0;orthogonalLoop=1;jettySize=auto;html=1;" edge="1" parent="1" source="bf58LCEmuOQnqqLItDYv-2" target="bf58LCEmuOQnqqLItDYv-10">
          <mxGeometry relative="1" as="geometry" />
        </mxCell>
        <mxCell id="bf58LCEmuOQnqqLItDYv-2" value="MASUKAN NILAI" style="shape=parallelogram;perimeter=parallelogramPerimeter;whiteSpace=wrap;html=1;fixedSize=1;" vertex="1" parent="1">
          <mxGeometry x="310" y="150" width="170" height="50" as="geometry" />
        </mxCell>
        <mxCell id="bf58LCEmuOQnqqLItDYv-13" value="" style="edgeStyle=orthogonalEdgeStyle;rounded=0;orthogonalLoop=1;jettySize=auto;html=1;" edge="1" parent="1" source="bf58LCEmuOQnqqLItDYv-8" target="bf58LCEmuOQnqqLItDYv-12">
          <mxGeometry relative="1" as="geometry" />
        </mxCell>
        <mxCell id="bf58LCEmuOQnqqLItDYv-8" value="If nilai &amp;gt; 70" style="rhombus;whiteSpace=wrap;html=1;" vertex="1" parent="1">
          <mxGeometry x="355" y="240" width="80" height="80" as="geometry" />
        </mxCell>
        <mxCell id="bf58LCEmuOQnqqLItDYv-18" style="edgeStyle=orthogonalEdgeStyle;rounded=0;orthogonalLoop=1;jettySize=auto;html=1;" edge="1" parent="1" source="bf58LCEmuOQnqqLItDYv-10">
          <mxGeometry relative="1" as="geometry">
            <mxPoint x="400" y="450" as="targetPoint" />
            <Array as="points">
              <mxPoint x="760" y="175" />
              <mxPoint x="760" y="450" />
            </Array>
          </mxGeometry>
        </mxCell>
        <mxCell id="bf58LCEmuOQnqqLItDYv-10" value="Ket : Lulus&amp;nbsp;" style="whiteSpace=wrap;html=1;" vertex="1" parent="1">
          <mxGeometry x="580" y="145" width="120" height="60" as="geometry" />
        </mxCell>
        <mxCell id="bf58LCEmuOQnqqLItDYv-15" value="" style="edgeStyle=orthogonalEdgeStyle;rounded=0;orthogonalLoop=1;jettySize=auto;html=1;" edge="1" parent="1" source="bf58LCEmuOQnqqLItDYv-12" target="bf58LCEmuOQnqqLItDYv-14">
          <mxGeometry relative="1" as="geometry" />
        </mxCell>
        <mxCell id="bf58LCEmuOQnqqLItDYv-12" value="Ket : Tidak lulus" style="whiteSpace=wrap;html=1;" vertex="1" parent="1">
          <mxGeometry x="335" y="360" width="120" height="60" as="geometry" />
        </mxCell>
        <mxCell id="bf58LCEmuOQnqqLItDYv-17" value="" style="edgeStyle=orthogonalEdgeStyle;rounded=0;orthogonalLoop=1;jettySize=auto;html=1;" edge="1" parent="1" source="bf58LCEmuOQnqqLItDYv-14" target="bf58LCEmuOQnqqLItDYv-16">
          <mxGeometry relative="1" as="geometry" />
        </mxCell>
        <mxCell id="bf58LCEmuOQnqqLItDYv-14" value="Tampilkan Nilai, Ket Lulus" style="shape=parallelogram;perimeter=parallelogramPerimeter;whiteSpace=wrap;html=1;fixedSize=1;" vertex="1" parent="1">
          <mxGeometry x="310" y="470" width="170" height="50" as="geometry" />
        </mxCell>
        <mxCell id="bf58LCEmuOQnqqLItDYv-16" value="Selesai" style="rounded=1;whiteSpace=wrap;html=1;" vertex="1" parent="1">
          <mxGeometry x="347.5" y="560" width="95" height="40" as="geometry" />
        </mxCell>
      </root>
    </mxGraphModel>
  </diagram>
</mxfile>
